<?xml version="1.0" encoding="UTF-8" standalone="no"?>
<!DOCTYPE svg PUBLIC "-//W3C//DTD SVG 1.1//EN" "http://www.w3.org/Graphics/SVG/1.1/DTD/svg11.dtd">
<!-- Created with Vectornator (http://vectornator.io/) -->
<svg height="100%" stroke-miterlimit="10" style="fill-rule:nonzero;clip-rule:evenodd;stroke-linecap:round;stroke-linejoin:round;" version="1.1" viewBox="0 0 1024 1024" width="100%" xml:space="preserve" xmlns="http://www.w3.org/2000/svg" xmlns:vectornator="http://vectornator.io" xmlns:xlink="http://www.w3.org/1999/xlink">
<defs/>
<g id="Ohne-Titel" vectornator:layerName="Ohne Titel">
<path d="M537 512.001C537 230.17 181.479 1.70025 463.31 1.70025C745.139 1.70025 973.609 230.17 973.609 512.001C973.609 793.83 745.139 1022.3 463.31 1022.3C181.479 1022.3 537 793.83 537 512.001Z" fill="#6fd0ac" fill-rule="nonzero" opacity="1" stroke="none" vectornator:layerName="Oval 2"/>
<path d="M103.46 512.001C103.46 313.26 264.569 152.151 463.31 152.151C662.049 152.151 823.16 313.26 823.16 512.001C823.16 710.74 662.049 871.851 463.31 871.851C264.569 871.851 103.46 710.74 103.46 512.001Z" fill="#ffffff" fill-rule="nonzero" opacity="1" stroke="#131313" stroke-linecap="butt" stroke-linejoin="miter" stroke-width="2" vectornator:layerName="Oval 4"/>
<path d="M459.88 91.6308C459.438 91.6882 459.571 91.7192 460.278 91.7192C625.518 92.8462 765.785 186.35 837.035 333.866C855.846 375.374 867.884 417.498 873.152 460.239C879.126 508.691 876.399 557.933 864.969 607.969C824.018 787.198 664.811 923.686 479.416 931.576C472.698 931.854 466.09 932.12 459.593 932.371C455.823 931.958 452.11 931.708 448.455 931.62C229.336 925.697 60.0075 744.546 50.5046 528.211C48.1333 415.061 82.9625 316.871 154.992 233.644C233.904 142.46 335.534 95.1225 459.88 91.6308ZM329.182 487.393L329.16 577.45L329.138 759.861C329.138 760.581 329.501 760.944 330.221 760.944L409.294 760.811C410.165 760.811 410.598 760.376 410.598 759.507C411.283 645.539 410.532 531.615 411.305 417.646C411.371 408.232 412.521 397.668 414.266 389.557C420.874 358.64 448.433 345.91 477.914 349.667C530.776 356.364 571.241 410.088 556.478 462.575C543.815 507.636 495.969 526.156 453.228 524.034C452.404 524.003 451.984 524.401 451.969 525.228L448.388 603.594C448.344 604.389 489.185 604.058 489.185 604.058C582.357 594.511 654.557 513.957 640.413 418.464C625.429 317.534 531.351 251.854 431.195 272.716C359.768 287.589 329.381 350.198 329.182 418.309C329.109 441.322 329.109 464.35 329.182 487.393Z" fill="#232329" fill-rule="nonzero" opacity="1" stroke="none" vectornator:layerName="path 1"/>
</g>
</svg>
